<?xml version="1.0" encoding="utf-8"?>
<!-- Generator: Adobe Illustrator 24.2.1, SVG Export Plug-In . SVG Version: 6.00 Build 0)  -->
<svg version="1.1" id="Layer_1" xmlns="http://www.w3.org/2000/svg" xmlns:xlink="http://www.w3.org/1999/xlink" x="0px" y="0px"
	 viewBox="0 0 515.1 169.1" style="enable-background:new 0 0 515.1 169.1;" xml:space="preserve">
<style type="text/css">
	.st0{fill:#FFFFFF;}
	.st1{fill-rule:evenodd;clip-rule:evenodd;fill:#FFFFFF;}
</style>
<g>
	<path class="st0" d="M28.8,64.1L9.6,95.8H0l23.2-38.6c0.6-1,1.4-1.9,2.4-2.8C26.8,53.5,28,53,29,53c1.1,0,2.2,0.5,3.4,1.4
		c1,0.8,1.8,1.7,2.4,2.8l22.6,38.6l-9.6-0.1L28.8,64.1z"/>
	<rect x="107.6" y="53.1" class="st0" width="7.4" height="42.7"/>
	<path class="st0" d="M420.3,74c0,6.3-2,11.5-6.1,15.6c-4,4.1-9.2,6.2-15.4,6.2h-11.9c-6.2,0-11.3-2.1-15.4-6.2
		c-4.1-4.1-6.1-9.3-6.1-15.6c0-6.3,2-11.3,6-15.1c4-3.8,9.2-5.8,15.5-5.8h11.9c6.3,0,11.5,1.9,15.5,5.8
		C418.3,62.7,420.3,67.7,420.3,74 M412.9,74.6c0-4.1-1.3-7.5-4-10.1c-2.6-2.6-6-3.9-10.1-3.9h-11.9c-4.1,0-7.4,1.3-10.1,3.9
		c-2.6,2.6-4,6-4,10.1c0,4.1,1.3,7.4,4,9.9c2.6,2.5,6,3.8,10.1,3.8h11.9c4.1,0,7.5-1.3,10.1-3.8C411.6,82,412.9,78.7,412.9,74.6"/>
	<polygon class="st0" points="515.1,95.9 504.4,95.9 489.5,80.3 474.4,95.9 463.7,95.9 484.5,74.6 463.7,53.1 474.1,53.1 
		489.5,68.9 504.8,53.1 515.1,53.1 494.4,74.6 	"/>
	<path class="st0" d="M214,68.6c0,2.6-1.1,4.6-3.2,6.1c-1.9,1.2-4.2,1.8-6.9,1.8h-11.4L212,95.8h10.9L210,82.9
		c3.6-1,6.4-2.6,8.5-5.1c2.2-2.6,3.4-5.7,3.4-9.3c0-5.2-1.9-9.2-5.8-11.9c-3.4-2.4-7.8-3.6-13.3-3.6h-30.6v42.7h7.4V60.6h24.4
		C210.7,60.6,214,63.2,214,68.6"/>
	<path class="st0" d="M315,74.7c3-2.4,4.5-5.4,4.5-8.9c0-2.1-0.6-4-1.7-5.9c-2.9-4.5-8-6.8-15.3-6.8H272v42.7h30.6
		c7.7,0,12.9-2.4,15.6-7.2c0.9-1.6,1.4-3.4,1.4-5.2C319.5,79.9,318,77,315,74.7 M303.7,78.4c2,0,3.8,0.3,5.4,1
		c2.2,0.9,3.2,2.3,3.2,4c0,1.7-1.1,3-3.2,3.9c-1.6,0.6-3.4,0.9-5.4,0.9h-24.3V60.5h24.3c2.1,0,3.9,0.4,5.6,1.1
		c2.1,1,3.1,2.3,3.1,4.1c0,1.8-1,3.2-3.1,4.2c-1.6,0.8-3.5,1.1-5.6,1.1H293l7.4,7.4H303.7z"/>
	<polygon class="st1" points="170.7,0 297.9,78.8 219,0 	"/>
	<path class="st1" d="M296.7,7.3c0-2.3-3.5-3.1-5.8-3.2c-7.9-0.5-14.3,3.9-18.8,8.5c-2,2.1-6.1,8.3-11.4,8.4
		c-2.3,0.1-2.5-1.9-1.4-2.9c1.9-1.7,5.4-3.6,8.1-5.5c8.9-6.5,7-12.5-3.6-12.5h-42.3l51.2,51.8c2.2-1,15-3.1,16.7-26.1
		c0.3-12.2,1-5.6,4.7-8.9c1.8-1.6,3.1-2.8,5.7-2.3c0.1,0,0.3,0.1,0.6,0.2c1.3,0.4,2.4,1.1,2.4,1.1l0.1-1.4l0,0
		C302.8,10.7,301.8,8.3,296.7,7.3"/>
	<path class="st0" d="M114.4,138c-0.2,0.4-0.5,0.6-1,0.6c-0.3,0-0.6-0.1-0.9-0.3c-0.3-0.2-0.7-0.4-1.2-0.6c-0.5-0.2-1.1-0.5-1.7-0.7
		c-0.7-0.2-1.4-0.3-2.4-0.3c-0.8,0-1.5,0.1-2.1,0.3c-0.6,0.2-1.2,0.5-1.6,0.8c-0.4,0.4-0.8,0.8-1,1.2c-0.2,0.5-0.4,1-0.4,1.5
		c0,0.7,0.2,1.2,0.6,1.7c0.4,0.5,0.9,0.8,1.6,1.2c0.6,0.3,1.4,0.6,2.2,0.9c0.8,0.3,1.7,0.5,2.5,0.8c0.9,0.3,1.7,0.6,2.5,1
		c0.8,0.4,1.6,0.8,2.2,1.3c0.6,0.5,1.2,1.2,1.6,1.9c0.4,0.8,0.6,1.7,0.6,2.7c0,1.2-0.2,2.4-0.7,3.4c-0.4,1-1.1,1.9-1.9,2.7
		c-0.9,0.8-1.9,1.4-3.1,1.8c-1.2,0.4-2.7,0.7-4.3,0.7c-1.8,0-3.5-0.3-5-0.9c-1.5-0.6-2.8-1.4-3.8-2.3l1.1-1.8
		c0.1-0.2,0.3-0.4,0.5-0.5c0.2-0.1,0.4-0.2,0.8-0.2c0.3,0,0.6,0.1,1,0.4c0.3,0.2,0.8,0.5,1.3,0.8c0.5,0.3,1.1,0.6,1.8,0.8
		c0.7,0.2,1.6,0.4,2.7,0.4c0.9,0,1.7-0.1,2.4-0.4c0.7-0.2,1.2-0.6,1.7-1c0.5-0.4,0.8-0.9,1-1.4c0.2-0.5,0.3-1.1,0.3-1.7
		c0-0.7-0.2-1.3-0.6-1.8c-0.4-0.5-0.9-0.9-1.6-1.2c-0.6-0.3-1.4-0.6-2.2-0.9c-0.8-0.3-1.7-0.5-2.5-0.8c-0.9-0.3-1.7-0.6-2.5-1
		c-0.8-0.4-1.6-0.8-2.2-1.3c-0.6-0.5-1.2-1.2-1.6-2c-0.4-0.8-0.6-1.8-0.6-2.9c0-1,0.2-2,0.6-2.9c0.4-0.9,1-1.8,1.8-2.5
		c0.8-0.7,1.8-1.3,3-1.7c1.2-0.4,2.5-0.6,4-0.6c1.7,0,3.3,0.3,4.7,0.8c1.4,0.5,2.6,1.3,3.6,2.3L114.4,138z"/>
	<path class="st0" d="M153.5,167.9c-0.2,0.3-0.4,0.6-0.6,0.8c-0.2,0.2-0.6,0.3-1.1,0.3h-3.5l4.8-10.5l-10.9-25h4
		c0.4,0,0.7,0.1,0.9,0.3c0.2,0.2,0.4,0.4,0.5,0.7l7.1,16.7c0.2,0.4,0.3,0.8,0.4,1.1c0.1,0.4,0.2,0.8,0.3,1.2
		c0.1-0.4,0.2-0.8,0.4-1.2c0.1-0.4,0.3-0.8,0.4-1.2l6.9-16.7c0.1-0.3,0.3-0.5,0.5-0.7c0.3-0.2,0.5-0.3,0.8-0.3h3.7L153.5,167.9z"/>
	<path class="st0" d="M211,138c-0.2,0.4-0.5,0.6-1,0.6c-0.3,0-0.6-0.1-0.9-0.3c-0.3-0.2-0.7-0.4-1.2-0.6c-0.5-0.2-1.1-0.5-1.7-0.7
		c-0.7-0.2-1.4-0.3-2.4-0.3c-0.8,0-1.5,0.1-2.1,0.3c-0.6,0.2-1.2,0.5-1.6,0.8c-0.4,0.4-0.8,0.8-1,1.2c-0.2,0.5-0.4,1-0.4,1.5
		c0,0.7,0.2,1.2,0.6,1.7c0.4,0.5,0.9,0.8,1.6,1.2c0.6,0.3,1.4,0.6,2.2,0.9c0.8,0.3,1.7,0.5,2.5,0.8c0.9,0.3,1.7,0.6,2.5,1
		c0.8,0.4,1.6,0.8,2.2,1.3c0.6,0.5,1.2,1.2,1.6,1.9c0.4,0.8,0.6,1.7,0.6,2.7c0,1.2-0.2,2.4-0.7,3.4c-0.4,1-1.1,1.9-1.9,2.7
		c-0.9,0.8-1.9,1.4-3.1,1.8c-1.2,0.4-2.7,0.7-4.3,0.7c-1.9,0-3.5-0.3-5-0.9c-1.5-0.6-2.8-1.4-3.8-2.3l1.1-1.8
		c0.1-0.2,0.3-0.4,0.5-0.5c0.2-0.1,0.4-0.2,0.8-0.2s0.6,0.1,1,0.4c0.3,0.2,0.8,0.5,1.3,0.8c0.5,0.3,1.1,0.6,1.8,0.8
		c0.7,0.2,1.6,0.4,2.7,0.4c0.9,0,1.7-0.1,2.4-0.4c0.7-0.2,1.2-0.6,1.7-1c0.5-0.4,0.8-0.9,1-1.4c0.2-0.5,0.3-1.1,0.3-1.7
		c0-0.7-0.2-1.3-0.6-1.8c-0.4-0.5-0.9-0.9-1.6-1.2c-0.6-0.3-1.4-0.6-2.2-0.9c-0.8-0.3-1.7-0.5-2.5-0.8c-0.9-0.3-1.7-0.6-2.5-1
		c-0.8-0.4-1.6-0.8-2.2-1.3c-0.6-0.5-1.2-1.2-1.6-2c-0.4-0.8-0.6-1.8-0.6-2.9c0-1,0.2-2,0.6-2.9c0.4-0.9,1-1.8,1.8-2.5
		c0.8-0.7,1.8-1.3,3-1.7c1.2-0.4,2.5-0.6,4-0.6c1.7,0,3.3,0.3,4.7,0.8c1.4,0.5,2.6,1.3,3.6,2.3L211,138z"/>
	<path class="st0" d="M250.4,160.5c-2.1,0-3.7-0.6-4.8-1.8c-1.1-1.2-1.7-2.9-1.7-5.1v-16.2h-3.2c-0.3,0-0.5-0.1-0.7-0.2
		c-0.2-0.2-0.3-0.4-0.3-0.8v-1.9l4.3-0.5l1.1-8.2c0-0.3,0.1-0.5,0.3-0.6c0.2-0.2,0.4-0.2,0.7-0.2h2.4v9.1h7.6v3.4h-7.6v15.9
		c0,1.1,0.3,1.9,0.8,2.5c0.5,0.5,1.2,0.8,2.1,0.8c0.5,0,0.9-0.1,1.3-0.2c0.4-0.1,0.7-0.3,0.9-0.4c0.3-0.2,0.5-0.3,0.7-0.4
		c0.2-0.1,0.3-0.2,0.5-0.2c0.2,0,0.5,0.1,0.7,0.4l1.4,2.2c-0.8,0.7-1.8,1.3-2.9,1.8C252.8,160.3,251.6,160.5,250.4,160.5"/>
	<path class="st0" d="M295,133.2c1.6,0,3.1,0.3,4.4,0.8c1.3,0.5,2.5,1.3,3.5,2.3c1,1,1.7,2.2,2.3,3.7c0.6,1.5,0.8,3.2,0.8,5
		c0,0.7-0.1,1.2-0.2,1.5c-0.2,0.2-0.5,0.4-0.9,0.4h-17.6c0,1.7,0.3,3.1,0.7,4.4c0.4,1.2,1,2.3,1.7,3.1c0.7,0.8,1.6,1.4,2.6,1.9
		c1,0.4,2.1,0.6,3.4,0.6c1.2,0,2.2-0.1,3-0.4c0.8-0.3,1.6-0.6,2.2-0.9c0.6-0.3,1.1-0.6,1.5-0.9c0.4-0.3,0.8-0.4,1.1-0.4
		c0.4,0,0.7,0.1,0.9,0.4l1.3,1.7c-0.6,0.7-1.3,1.3-2.1,1.8c-0.8,0.5-1.7,0.9-2.6,1.3c-0.9,0.3-1.9,0.6-2.8,0.7
		c-1,0.2-1.9,0.2-2.9,0.2c-1.8,0-3.5-0.3-5.1-0.9c-1.5-0.6-2.9-1.5-4-2.7c-1.1-1.2-2-2.7-2.6-4.4c-0.6-1.8-0.9-3.8-0.9-6.1
		c0-1.8,0.3-3.6,0.8-5.2c0.6-1.6,1.4-3,2.4-4.2c1.1-1.2,2.4-2.1,3.9-2.8C291.3,133.5,293,133.2,295,133.2 M295.1,136.6
		c-2.3,0-4,0.6-5.3,1.9c-1.3,1.3-2.1,3.1-2.4,5.4h14.4c0-1.1-0.1-2.1-0.4-3c-0.3-0.9-0.7-1.7-1.3-2.3c-0.6-0.7-1.3-1.2-2.1-1.5
		C297.1,136.8,296.1,136.6,295.1,136.6"/>
	<path class="st0" d="M335.2,160.1v-26.5h2.8c0.7,0,1.1,0.3,1.3,1l0.3,2.7c1-1.2,2.1-2.2,3.3-3c1.2-0.8,2.6-1.2,4.2-1.2
		c1.8,0,3.2,0.5,4.4,1.5c1.1,1,1.9,2.3,2.4,4c0.4-1,0.9-1.8,1.5-2.5c0.6-0.7,1.3-1.3,2-1.7c0.8-0.5,1.5-0.8,2.4-1
		c0.8-0.2,1.7-0.3,2.6-0.3c1.4,0,2.6,0.2,3.7,0.7c1.1,0.4,2,1.1,2.8,1.9c0.8,0.9,1.3,1.9,1.7,3.2c0.4,1.2,0.6,2.7,0.6,4.3v16.9h-4.7
		v-16.9c0-2.1-0.5-3.7-1.4-4.7c-0.9-1.1-2.2-1.6-4-1.6c-0.8,0-1.5,0.1-2.2,0.4c-0.7,0.3-1.3,0.7-1.8,1.2c-0.5,0.5-0.9,1.2-1.2,2
		c-0.3,0.8-0.5,1.7-0.5,2.8v16.9h-4.7v-16.9c0-2.1-0.4-3.7-1.3-4.8c-0.9-1-2.1-1.6-3.7-1.6c-1.1,0-2.2,0.3-3.2,0.9
		c-1,0.6-1.9,1.5-2.7,2.5v19.8H335.2z"/>
	<path class="st0" d="M416.8,138c-0.2,0.4-0.5,0.6-1,0.6c-0.3,0-0.6-0.1-0.9-0.3c-0.3-0.2-0.7-0.4-1.2-0.6c-0.5-0.2-1.1-0.5-1.7-0.7
		c-0.7-0.2-1.4-0.3-2.4-0.3c-0.8,0-1.5,0.1-2.1,0.3c-0.6,0.2-1.2,0.5-1.6,0.8c-0.4,0.4-0.8,0.8-1,1.2c-0.2,0.5-0.4,1-0.4,1.5
		c0,0.7,0.2,1.2,0.6,1.7c0.4,0.5,0.9,0.8,1.6,1.2c0.6,0.3,1.4,0.6,2.2,0.9c0.8,0.3,1.7,0.5,2.5,0.8c0.9,0.3,1.7,0.6,2.5,1
		c0.8,0.4,1.6,0.8,2.2,1.3c0.6,0.5,1.2,1.2,1.6,1.9c0.4,0.8,0.6,1.7,0.6,2.7c0,1.2-0.2,2.4-0.7,3.4c-0.4,1-1.1,1.9-1.9,2.7
		c-0.9,0.8-1.9,1.4-3.1,1.8c-1.2,0.4-2.7,0.7-4.3,0.7c-1.9,0-3.5-0.3-5-0.9c-1.5-0.6-2.8-1.4-3.8-2.3l1.1-1.8
		c0.1-0.2,0.3-0.4,0.5-0.5c0.2-0.1,0.4-0.2,0.8-0.2s0.6,0.1,1,0.4c0.3,0.2,0.8,0.5,1.3,0.8c0.5,0.3,1.1,0.6,1.8,0.8
		c0.7,0.2,1.6,0.4,2.7,0.4c0.9,0,1.7-0.1,2.4-0.4c0.7-0.2,1.2-0.6,1.7-1c0.5-0.4,0.8-0.9,1-1.4c0.2-0.5,0.3-1.1,0.3-1.7
		c0-0.7-0.2-1.3-0.6-1.8c-0.4-0.5-0.9-0.9-1.6-1.2c-0.6-0.3-1.4-0.6-2.2-0.9c-0.8-0.3-1.7-0.5-2.5-0.8c-0.9-0.3-1.7-0.6-2.5-1
		c-0.8-0.4-1.6-0.8-2.2-1.3c-0.6-0.5-1.2-1.2-1.6-2c-0.4-0.8-0.6-1.8-0.6-2.9c0-1,0.2-2,0.6-2.9c0.4-0.9,1-1.8,1.8-2.5
		c0.8-0.7,1.8-1.3,3-1.7c1.2-0.4,2.5-0.6,4-0.6c1.7,0,3.3,0.3,4.7,0.8c1.4,0.5,2.6,1.3,3.6,2.3L416.8,138z"/>
</g>
</svg>
